<svg xmlns="http://www.w3.org/2000/svg" viewBox="0 0 384 512">
  <defs>
    <linearGradient id="codeGrad" x1="0%" y1="0%" x2="100%" y2="100%">
      <stop offset="0%" style="stop-color:#1a56db"/>
      <stop offset="100%" style="stop-color:#7c3aed"/>
    </linearGradient>
  </defs>
  <path fill="url(#codeGrad)" d="M149.9 349.3l-.2-.2-32.8-28.9 32.8-28.9c11.6-10.6 12.1-28.7 1.3-39.9l-.1-.1-80-72c-12.5-11.3-32.1-10.3-43.4 2.2l-.1.1-80 72c-11.5 10.9-12.1 28.7-1.3 39.9l.1.1 32.8 28.9-32.8 28.9c-11.6 10.6-12.1 28.7-1.3 39.9l.1.1 80 72c12.5 11.3 32.1 10.3 43.4-2.2l.1-.1 80-72c11.5-10.9 12.1-28.7 1.3-39.9zm236.8 0l-.1-.1-80-72c-12.5-11.3-32.1-10.3-43.4 2.2l-.1.1-80 72c-11.5 10.9-12.1 28.7-1.3 39.9l.1.1 32.8 28.9-32.8 28.9c-11.6 10.6-12.1 28.7-1.3 39.9l.1.1 80 72c12.5 11.3 32.1 10.3 43.4-2.2l.1-.1 80-72c11.5-10.9 12.1-28.7 1.3-39.9l-.2-.2-32.8-28.9 32.8-28.9c11.6-10.6 12.1-28.7 1.3-39.9z"/>
</svg>
